<?xml version="1.0" encoding="UTF-8"?>
<svg version="1.1" xmlns="http://www.w3.org/2000/svg" width="677" height="623">
<path d="M0 0 C5.42909308 4.04025532 7.20665594 9.23999609 8.5546875 15.62890625 C10.94874344 33.7523297 7.86937862 47.33293304 -0.765625 63.37890625 C-1.97668859 65.95050013 -2.57478589 68.20067375 -3 71 C9.92422322 62.94298425 17.62501697 52.63514914 25.02441406 39.69482422 C29.17938911 32.47664685 33.70639887 24.76453371 42 22 C49.0738255 21.31543624 49.0738255 21.31543624 52.875 24.125 C58.14966989 31.26131808 58.588482 40.69100649 57.63671875 49.27734375 C54.73786443 63.94945915 46.2528336 74.66564095 37.109375 86.03125 C34.81347668 88.90179738 32.77078399 91.76639446 31 95 C44.69993536 89.43657447 56.05113513 82.65132981 67.44921875 73.1171875 C78.12563974 64.25559458 78.12563974 64.25559458 82.75 63.625 C87.20107931 64.13858607 88.93489214 65.79556906 92 69 C95.03938586 75.07877171 94.76609892 81.98839039 93 88.4375 C90.9366125 94.13446257 86.95251805 98.50295452 83 103 C84.18335938 102.566875 85.36671875 102.13375 86.5859375 101.6875 C105.9752344 94.77242173 105.9752344 94.77242173 112.9296875 97.85546875 C114.625 99 114.625 99 117 102 C118.29690946 108.95615076 115.83840516 114.22130213 112 120 C108.89167086 123.87326464 105.47283688 127.45298602 102 131 C102.73863281 130.7834375 103.47726562 130.566875 104.23828125 130.34375 C112.1869887 128.16214796 120.33011188 125.98553846 128.1875 129.375 C130.55980032 132.81074529 130.76523922 135.21909242 130.546875 139.34375 C128.9515708 147.09237038 122.6217634 152.82731238 117 158 C117.72445313 158.02578125 118.44890625 158.0515625 119.1953125 158.078125 C125.1770579 158.42905406 129.363351 158.83890475 134 163 C136.74754434 167.47783178 136.61667344 171.89702731 136 177 C134.05602566 183.0749198 129.93051467 188.07375495 126 193 C126.495 193.928125 126.99 194.85625 127.5 195.8125 C131.12581785 204.37011747 128.71565859 214.22256811 127 223 C127.49886719 222.53851563 127.99773437 222.07703125 128.51171875 221.6015625 C134.50821686 216.15411538 140.8255797 211.21810889 147.26757812 206.32080078 C157.46750663 198.54436149 167.37511507 190.47886516 177 182 C177.80896729 181.2879541 177.80896729 181.2879541 178.63427734 180.56152344 C188.27123197 172.03006223 196.62153132 162.73503838 204.734375 152.75 C207.03200351 149.96115436 209.36607879 147.21545992 211.75 144.5 C212.44609375 143.7059375 213.1421875 142.911875 213.859375 142.09375 C216.10686153 139.8954785 218.18766397 138.39933089 221 137 C223.8125 137.3125 223.8125 137.3125 226 138 C226.49113208 147.2041789 224.74051239 152.75684866 218.54296875 159.66796875 C215.15308355 162.77666532 211.46926909 165.32928444 207.6875 167.9375 C190.55476814 179.76426781 180.46114703 192.26182928 174 212 C202.34884838 200.67687947 227.66054158 187.14562393 252.95141602 170.00830078 C265.65666945 161.43155158 265.65666945 161.43155158 274 161 C275 162 275 162 275.3125 164.6875 C274.86172621 169.4657022 272.99295213 172.28327233 269.35302734 175.41870117 C264.20943128 179.32451573 258.84717532 182.34230191 253.125 185.3125 C239.94520861 192.41791743 232.31875859 199.46279202 226 213 C246.3147416 207.01581255 265.36214676 197.79549883 283.90234375 187.64453125 C288.97681316 184.95051912 292.37997275 184.82158644 298 185 C298.66 185.33 299.32 185.66 300 186 C300.75391886 191.90569772 299.29096344 194.97022869 295.82421875 199.74609375 C290.50251115 206.3213085 284.22779351 211.58812873 277.61328125 216.82421875 C274.90870709 219.07600919 272.4517297 221.4775898 270 224 C270.8765625 223.76925781 271.753125 223.53851563 272.65625 223.30078125 C281.23137802 221.09599732 289.84159537 219.10167079 298.5 217.25 C300.02077148 216.91609253 300.02077148 216.91609253 301.57226562 216.57543945 C307.13775923 215.40494084 312.31195818 214.45206937 318 215 C318.66 215.99 319.32 216.98 320 218 C317.59854412 223.80436996 313.11724322 225.18057761 307.6875 227.5 C299.88234183 230.88004554 292.91778921 233.94676662 289 242 C289 242.66 289 243.32 289 244 C290.18722656 243.76023437 290.18722656 243.76023437 291.3984375 243.515625 C295.82980496 242.88119929 300.15439547 242.77751141 304.625 242.75 C305.470625 242.729375 306.31625 242.70875 307.1875 242.6875 C313.39994269 242.64830478 313.39994269 242.64830478 316.5859375 244.515625 C318 246 318 246 318 249.25 C317 253 317 253 313.6875 255.1875 C308.26092394 257.47081342 302.61448472 259.24079479 297 261 C296.7226499 264.18490007 296.7226499 264.18490007 299 267 C299.54298643 272.21266968 299.54298643 272.21266968 297.75 274.8125 C293.76600433 277.51592564 289.69812302 277.09034852 285 277 C284.896875 278.093125 284.79375 279.18625 284.6875 280.3125 C283.83293365 284.89608313 283.83293365 284.89608313 281 287 C278.9140625 287.328125 278.9140625 287.328125 276.625 287.25 C275.83480469 287.22421875 275.04460938 287.1984375 274.23046875 287.171875 C271.75904936 286.98143288 269.40112063 286.61964403 267 286 C267.495 286.391875 267.99 286.78375 268.5 287.1875 C270 289 270 289 270.25 291.625 C270 294 270 294 269 295 C261.40729897 295.59550596 254.35846512 293.73626705 247 292 C246.90203125 292.81984375 246.8040625 293.6396875 246.703125 294.484375 C246.55359375 295.56203125 246.4040625 296.6396875 246.25 297.75 C246.11078125 298.81734375 245.9715625 299.8846875 245.828125 300.984375 C244.86903671 304.47690406 243.86917987 305.82762095 241 308 C238.859375 308.609375 238.859375 308.609375 236.75 308.75 C235.5125 308.8325 234.275 308.915 233 309 C233.33 309.66 233.66 310.32 234 311 C234.58178661 318.21415391 234.58178661 318.21415391 232.4296875 321.12109375 C229.3473306 323.50471701 226.57876705 324.23129749 222.8125 325.1875 C218.58972745 325.95975132 218.58972745 325.95975132 215 328 C214.81273745 334.11278456 216.41826319 338.19387848 219.85546875 343.13671875 C221.40986738 345.6672585 221.78007298 348.06763979 222 351 C221.01 351 220.02 351 219 351 C219.33 352.32 219.66 353.64 220 355 C218 354 216 353 214 352 C214.33 353.32 214.66 354.64 215 356 C212.525 354.02 212.525 354.02 210 352 C209.67 353.32 209.34 354.64 209 356 C205.63279613 354.60667426 204.0140476 353.0210714 202 350 C202 351.65 202 353.3 202 355 C199.53199953 353.84826645 197.95216435 352.95216435 196 351 C196 355.29 196 359.58 196 364 C195.34 364 194.68 364 194 364 C193.34 364.99 192.68 365.98 192 367 C190.68 366.67 189.36 366.34 188 366 C188.33 366.99 188.66 367.98 189 369 C186.00667261 368.0022242 185.05233685 367.2477975 183 365 C182.34 366.32 181.68 367.64 181 369 C179.35 367.02 177.7 365.04 176 363 C175.34 364.32 174.68 365.64 174 367 C173.34 366.01 172.68 365.02 172 364 C171.67 365.65 171.34 367.3 171 369 C167.125 367.125 167.125 367.125 166 366 C164.58555139 371.2948959 164.58555139 371.2948959 166.26953125 376.2890625 C167.38101893 377.80401761 168.49690993 379.31575198 169.6171875 380.82421875 C171.63486503 383.99892605 171.65626107 386.35410517 171 390 C169.32784954 392.27049184 168.42247555 392.9214807 165.625 393.44140625 C164.75875 393.48136719 163.8925 393.52132813 163 393.5625 C159.31096349 393.74365804 158.18809914 393.87460058 155 396 C151.84618277 396.17202639 149.04511492 396.31905661 146.00390625 395.390625 C143.66673166 394.73943427 143.66673166 394.73943427 140.375 396.5625 C135.1561708 398.60966504 131.15359281 398.09881325 126 396 C120.66611611 392.95914428 115.34302385 389.34302385 111 385 C108.99598989 385.30830925 106.99708656 385.64963394 105 386 C91.39605914 387.19142794 81.92725285 381.94252092 71.34765625 374.01171875 C63.41396133 368.10317457 55.68925911 363.31699674 46 361 C48.94639269 363.95799266 51.91058457 366.89620161 54.890625 369.8203125 C61.97939152 376.80459423 68.90446071 383.70865308 75.046875 391.55078125 C77.01571958 394.01971236 79.09829114 396.31462196 81.25 398.625 C88.58327693 406.67622012 94.98190451 415.5511383 101.4453125 424.3046875 C114.55194644 442.01508533 128.80738707 458.95407562 148.33959961 469.73046875 C159.22525586 475.82376172 169.1489737 483.37181354 178.6875 491.375 C194.25947081 504.34287763 212.31466272 514.22986533 230 524 C231.43641846 524.79543213 231.43641846 524.79543213 232.90185547 525.60693359 C246.29552273 532.99361193 259.85865682 539.96388318 273.5625 546.75 C290.48154226 555.13537172 306.40926817 564.33385158 322 575 C320 576 320 576 317.3984375 575.22265625 C316.40070312 574.83980469 315.40296875 574.45695313 314.375 574.0625 C313.37210938 573.68222656 312.36921875 573.30195312 311.3359375 572.91015625 C310.56507813 572.60980469 309.79421875 572.30945313 309 572 C313.15881171 577.92315608 317.78967566 582.98964547 323 588 C324.00136188 588.99863626 325.00158464 589.99841786 326 591 C318.98288316 588.83369008 312.53330648 586.02653713 305.9375 582.8125 C304.92018799 582.3292627 303.90287598 581.84602539 302.85473633 581.34814453 C298.41979902 579.22759046 294.0535382 577.1042396 289.859375 574.53515625 C280.75099466 569.07108645 272.98456006 568.3071902 262.41455078 568.22363281 C253.99236931 568.15353861 245.88903056 567.38373392 237.5625 566.125 C236.3768042 565.94694824 235.1911084 565.76889648 233.96948242 565.58544922 C228.98151885 564.81807021 224.00260379 564.00896577 219.03125 563.140625 C188.93605085 557.91983008 158.42602066 558.75528165 128 559 C129.09208968 560.27337997 130.18786885 561.54359622 131.28515625 562.8125 C131.89496338 563.52019531 132.50477051 564.22789062 133.13305664 564.95703125 C135.56240345 567.61542985 138.16423189 569.78671757 141 572 C137.31676023 573.22774659 136.21688121 572.2738401 132.83984375 570.703125 C130.18424103 569.68824498 127.80711691 569.80860567 125 570 C122.34453571 570 120.63355888 569.70278692 118.125 569 C114.99955283 568.18115591 112.25136937 567.79678941 109 568 C110.98 570.97 110.98 570.97 113 574 C111.205625 573.38125 111.205625 573.38125 109.375 572.75 C98.39744065 568.69861715 98.39744065 568.69861715 87 567 C87.7425 567.680625 87.7425 567.680625 88.5 568.375 C90 570 90 570 90 572 C85.51695963 570.52404517 81.06783525 568.96771452 76.625 567.375 C75.98433594 567.14554688 75.34367187 566.91609375 74.68359375 566.6796875 C73.12218595 566.12037724 71.56106299 565.56027192 70 565 C70.33 566.32 70.66 567.64 71 569 C70.25234375 568.71125 69.5046875 568.4225 68.734375 568.125 C67.74953125 567.75375 66.7646875 567.3825 65.75 567 C64.77546875 566.62875 63.8009375 566.2575 62.796875 565.875 C59.85216862 564.80094762 59.85216862 564.80094762 56 565 C55.34 564.67 54.68 564.34 54 564 C53.34 564.66 52.68 565.32 52 566 C48.39919236 565.6107235 45.3295323 564.36596197 42 563 C39.85266073 562.29485154 39.85266073 562.29485154 38 562 C37.67 562.33 37.34 562.66 37 563 C32.66905042 563 30.72965139 562.03435531 27 560 C27.33 561.32 27.66 562.64 28 564 C26.35 563.01 24.7 562.02 23 561 C22.34 561.66 21.68 562.32 21 563 C20.01 562.01 19.02 561.02 18 560 C18 560.99 18 561.98 18 563 C15.11562221 561.70700306 13.12780579 560.34058637 11 558 C10.01 558.33 9.02 558.66 8 559 C7.34 558.67 6.68 558.34 6 558 C5.67 558.66 5.34 559.32 5 560 C3.35 558.68 1.7 557.36 0 556 C-0.33 556.66 -0.66 557.32 -1 558 C-1.66 557.67 -2.32 557.34 -3 557 C-3.33 557.66 -3.66 558.32 -4 559 C-4.4125 558.505 -4.825 558.01 -5.25 557.5 C-7.12202338 555.56613908 -7.12202338 555.56613908 -11 556 C-14.01948605 554.77333379 -16.44554753 553.0070698 -19 551 C-19.66 551.99 -20.32 552.98 -21 554 C-21.45375 553.195625 -21.9075 552.39125 -22.375 551.5625 C-23.74725665 548.91143428 -23.74725665 548.91143428 -26 548 C-25.67 549.32 -25.34 550.64 -25 552 C-25.66 552 -26.32 552 -27 552 C-27.33 550.68 -27.66 549.36 -28 548 C-28.66 548 -29.32 548 -30 548 C-30.33 548.66 -30.66 549.32 -31 550 C-31.66 549.01 -32.32 548.02 -33 547 C-33.66 547.66 -34.32 548.32 -35 549 C-35.66 547.68 -36.32 546.36 -37 545 C-37.99 546.32 -38.98 547.64 -40 549 C-40.33 546.69 -40.66 544.38 -41 542 C-42.051875 542.721875 -43.10375 543.44375 -44.1875 544.1875 C-53.09417889 549.69516363 -62.42164796 553.42807753 -73 552 C-73.969375 551.62875 -74.93875 551.2575 -75.9375 550.875 C-79.41423998 549.88164572 -81.17019253 550.25658535 -84.6875 550.9375 C-90.62233468 552.06689018 -96.0778888 552.40339106 -102 551 C-104.625 549.0625 -104.625 549.0625 -107 547 C-109.10723906 546.39024572 -111.21845821 546.02189839 -113.375 545.62109375 C-116.40430149 544.90433938 -119.12132625 543.80885458 -122 542.625 C-127.30683133 540.51104946 -132.57470722 538.97950055 -138.125 537.6875 C-139.22714844 537.43057373 -139.22714844 537.43057373 -140.3515625 537.16845703 C-143.29679934 536.50838879 -145.97228776 536 -149 536 C-142.32049517 543.11044063 -135.15640024 548.51493986 -126 552 C-126 552.66 -126 553.32 -126 554 C-125.13375 554.0825 -124.2675 554.165 -123.375 554.25 C-117.35932084 555.58681759 -113.3533727 558.91212418 -110 564 C-107.96132576 568.30484002 -106.54687374 572.16665326 -107 577 C-108.50665702 575.00746838 -109.99364013 573.00905325 -111.4296875 570.96484375 C-115.16627682 565.72351981 -118.42794849 562.21704658 -125 561 C-125.33 562.98 -125.66 564.96 -126 567 C-131.29292929 568.32323232 -131.29292929 568.32323232 -134.1875 567 C-136.20021878 564.77906893 -136.95651729 562.59468176 -138.0390625 559.8359375 C-140.54705836 555.04423809 -145.06849504 552.41000249 -149.84765625 550.26171875 C-154.42246091 548.02586426 -157.12923385 544.94636566 -160.25 541 C-161.25380911 539.76969038 -162.25898546 538.54049484 -163.265625 537.3125 C-163.73355469 536.73862549 -164.20148438 536.16475098 -164.68359375 535.57348633 C-169.01692389 530.39390311 -172.23970082 528.41834531 -179.0546875 527.66015625 C-182.03529023 527.40417507 -185.01414266 527.18359641 -188 527 C-185.61034777 532.85052788 -181.7780826 536.67072868 -177.3125 541.0625 C-176.62994141 541.75666016 -175.94738281 542.45082031 -175.24414062 543.16601562 C-171.8739014 546.51716001 -168.69458337 549.31209418 -164.55859375 551.67578125 C-161.13795189 553.6891358 -161.13795189 553.6891358 -159.859375 556.5703125 C-159.82328125 557.41335938 -159.7871875 558.25640625 -159.75 559.125 C-159.68296875 559.97320313 -159.6159375 560.82140625 -159.546875 561.6953125 C-160 564 -160 564 -161.859375 565.8046875 C-164 567 -164 567 -166.5 567 C-170.55834014 565.37666395 -172.35363605 562.36076621 -174.1875 558.5 C-176.16174209 555.77690746 -177.49187802 555.06900275 -180.4375 553.5625 C-186.05461034 550.63578555 -188.12343766 547.15488242 -190.5 541.3125 C-192.54161027 537.13167259 -195.49635725 534.12888001 -198.8125 530.9375 C-199.31007813 530.43581299 -199.80765625 529.93412598 -200.3203125 529.41723633 C-202.00520744 527.7875598 -202.00520744 527.7875598 -205 526 C-208.55257643 526.16599236 -208.55257643 526.16599236 -212 527 C-214.84375 526.66015625 -214.84375 526.66015625 -217.5 526.0625 C-221.80082089 525.17860716 -225.62139349 524.80539527 -230 525 C-230.99 527.475 -230.99 527.475 -232 530 C-232.33 530 -232.66 530 -233 530 C-233 528.02 -233 526.04 -233 524 C-234.32 523.67 -235.64 523.34 -237 523 C-237 521.68 -237 520.36 -237 519 C-238.6074328 519.93188881 -240.21082799 520.87074435 -241.8125 521.8125 C-243.15248047 522.59560547 -243.15248047 522.59560547 -244.51953125 523.39453125 C-246.66831987 524.78532199 -248.29361617 526.1122066 -250 528 C-250.3841073 525.38807037 -250.40150173 523.62856826 -248.95703125 521.3671875 C-247.14567494 519.16806283 -245.57347501 517.2867375 -243 516 C-243.72445312 516.08378906 -244.44890625 516.16757812 -245.1953125 516.25390625 C-250.42240597 516.80449343 -254.81139198 516.94338328 -260 516 C-261.216875 516.20625 -262.43375 516.4125 -263.6875 516.625 C-267 517 -267 517 -268.9375 515.875 C-270.30361625 513.46420662 -270.22111261 511.72705554 -270 509 C-278.40434464 510.41940043 -283.85450506 512.87546855 -289 520 C-288.521671 514.97754554 -287.16310458 511.9325084 -284 508 C-282.06575509 506.46773753 -280.13347948 505.26069242 -278 504 C-281.18518182 500.81481818 -284.69368476 500.07837891 -289.125 499.8125 C-291.89887642 499.88411844 -291.89887642 499.88411844 -294.0625 500.625 C-296.81014184 501.15680165 -298.5243783 500.16904358 -301 499 C-301.33 496.69 -301.66 494.38 -302 492 C-308.87777492 488.66532125 -314.96636046 490.02564504 -322 492 C-316.7311828 485.07526882 -316.7311828 485.07526882 -312 484 C-306.47003845 483.41622287 -302.29713522 484.05725359 -297.21484375 486.2109375 C-293.62326702 487.4904763 -289.91030239 487.89924768 -286.15234375 488.47265625 C-279.49280201 489.58670598 -272.96561798 491.24190414 -266.625 493.5625 C-262.91677493 494.85405415 -259.33054722 495.43602273 -255.4375 495.9375 C-250.36719887 496.59086149 -245.56377004 497.55696895 -240.625 498.875 C-233.68631858 500.70912392 -226.69886912 502.04517575 -219.625 503.25 C-218.62678223 503.42515137 -217.62856445 503.60030273 -216.60009766 503.78076172 C-211.96660831 504.54594631 -207.57490435 505.0780216 -202.875 504.95703125 C-197.72226277 504.85776303 -193.29438071 506.00984584 -188.375 507.4375 C-182.35216857 509.07297436 -176.83978427 510.25938371 -170.5625 510.375 C-161.51281677 510.68517059 -153.06536583 512.98894031 -144.31323242 515.19506836 C-135.86923154 517.32151526 -127.41671605 519.24458116 -118.875 520.9375 C-117.82062744 521.14858398 -116.76625488 521.35966797 -115.67993164 521.57714844 C-110.37775866 522.64322418 -110.37775866 522.64322418 -105 523 C-103.61558 521.03501678 -102.28796166 519.02951535 -101 517 C-100.29875 516.319375 -99.5975 515.63875 -98.875 514.9375 C-96.7710526 512.76342102 -95.94919418 510.84758254 -95 508 C-94.34 508 -93.68 508 -93 508 C-93.33 507.01 -93.66 506.02 -94 505 C-93.34 504.01 -92.68 503.02 -92 502 C-91.18553891 499.99427359 -91.18553891 499.99427359 -91 498 C-91.66 497.34 -92.32 496.68 -93 496 C-92.01 495.34 -91.02 494.68 -90 494 C-90.99 493.34 -91.98 492.68 -93 492 C-92.50628906 491.60167969 -92.01257813 491.20335937 -91.50390625 490.79296875 C-90.86324219 490.26316406 -90.22257813 489.73335938 -89.5625 489.1875 C-88.92441406 488.66542969 -88.28632813 488.14335937 -87.62890625 487.60546875 C-85.7451725 485.99165589 -85.7451725 485.99165589 -85 483 C-85.72815918 482.73968994 -86.45631836 482.47937988 -87.20654297 482.21118164 C-90.08147464 480.96467439 -92.21591998 479.52767165 -94.6953125 477.62109375 C-95.57074707 476.95150635 -96.44618164 476.28191895 -97.34814453 475.59204102 C-98.26450684 474.88104248 -99.18086914 474.17004395 -100.125 473.4375 C-101.06843262 472.71167725 -102.01186523 471.98585449 -102.98388672 471.23803711 C-109.42001499 466.27011935 -115.75575745 461.20692538 -122 456 C-123.83324531 454.52072424 -125.66658111 453.04156062 -127.5 451.5625 C-132.21177929 447.71107413 -136.72964578 443.68365537 -141.19921875 439.5546875 C-142.66109436 438.22126121 -144.12744997 436.89165706 -145.63500977 435.61010742 C-151.99716378 430.19198788 -157.86017315 424.29103494 -163.75463867 418.37573242 C-165.55862085 416.56639067 -167.36788665 414.76245681 -169.17773438 412.95898438 C-174.99467677 407.14604614 -180.74104737 401.33155484 -186 395 C-186.72908569 394.13097046 -186.72908569 394.13097046 -187.47290039 393.24438477 C-201.51379197 376.34090198 -214.09038719 358.14659121 -223.125 338.0625 C-226.23192225 331.18822059 -229.84251656 325.56881648 -235 320 C-235.51691406 319.38125 -236.03382813 318.7625 -236.56640625 318.125 C-244.49041269 309.22786997 -256.37417663 303.73184679 -268 302 C-269.23169922 301.76023437 -269.23169922 301.76023437 -270.48828125 301.515625 C-278.29372458 300.69016599 -284.50910926 304.2273542 -291.35961914 307.49462891 C-310.2487709 316.45361563 -310.2487709 316.45361563 -319 314 C-319.72832662 293.36407914 -316.52344028 272.38623107 -307.203125 253.86328125 C-305.97090107 250.93074831 -305.62943443 248.78227554 -305.5 245.625 C-304.73873098 228.75429621 -292.50073516 214.17402304 -282 202 C-281.15566406 201.00871094 -280.31132812 200.01742187 -279.44140625 198.99609375 C-261.44972172 178.33139666 -236.38048189 165.43535435 -209 163 C-184.23587408 161.48261224 -162.47312651 168.34879344 -140 178 C-134.97525384 172.62233292 -130.98597947 167.11542245 -127.3125 160.75 C-126.26603201 158.96851086 -125.21914541 157.18726755 -124.171875 155.40625 C-123.38200195 154.05466797 -123.38200195 154.05466797 -122.57617188 152.67578125 C-121.07878252 150.13374479 -119.55468286 147.6107297 -118.015625 145.09375 C-111.31224737 134.11652578 -105.08475132 122.93517399 -99.01953125 111.59375 C-96.93405878 107.70208041 -94.78249437 103.8641328 -92.55273438 100.05395508 C-87.26682446 90.99607281 -82.96377106 81.49911117 -78.69140625 71.93261719 C-71.89314342 56.89314342 -71.89314342 56.89314342 -67 52 C-64.25 51.5 -64.25 51.5 -61 52 C-54.84145379 58.30517826 -51.76558063 68.0561857 -51.75 76.8125 C-51.8325 77.864375 -51.915 78.91625 -52 80 C-42.87425005 73.43030501 -36.13693381 65.92176169 -29.8125 56.6875 C-29.20643921 55.81834961 -29.20643921 55.81834961 -28.58813477 54.93164062 C-22.0931624 45.16460507 -19.14055295 34.51604835 -16.875 23.125 C-16.40079156 20.77190083 -15.91926053 18.42026305 -15.4296875 16.0703125 C-15.22585449 15.04695801 -15.02202148 14.02360352 -14.81201172 12.96923828 C-12.74381128 5.40656427 -8.82541747 -1.65476577 0 0 Z " fill="#000000" transform="translate(336,13)"/>
</svg>
